<svg id="icon_-_sso" data-name="icon - sso" xmlns="http://www.w3.org/2000/svg" width="56" height="56" viewBox="0 0 56 56">
  <metadata><?xpacket begin="﻿" id="W5M0MpCehiHzreSzNTczkc9d"?>
<x:xmpmeta xmlns:x="adobe:ns:meta/" x:xmptk="Adobe XMP Core 5.6-c142 79.160924, 2017/07/13-01:06:39        ">
   <rdf:RDF xmlns:rdf="http://www.w3.org/1999/02/22-rdf-syntax-ns#">
      <rdf:Description rdf:about=""/>
   </rdf:RDF>
</x:xmpmeta>
                                                                                                    
                                                                                                    
                                                                                                    
                                                                                                    
                                                                                                    
                                                                                                    
                                                                                                    
                                                                                                    
                                                                                                    
                                                                                                    
                                                                                                    
                                                                                                    
                                                                                                    
                                                                                                    
                                                                                                    
                                                                                                    
                                                                                                    
                                                                                                    
                                                                                                    
                                                                                                    
                           
<?xpacket end="w"?></metadata>
<defs>
    <style>
      .cls-1 {
        fill: none;
        stroke: #3989e8;
        stroke-linecap: round;
        stroke-linejoin: round;
        stroke-width: 2px;
      }

      .cls-1, .cls-2 {
        fill-rule: evenodd;
      }

      .cls-2 {
        fill: #3989e8;
      }
    </style>
  </defs>
  <path id="Elipsa_1" data-name="Elipsa 1" class="cls-1" d="M773,1102.79A24.01,24.01,0,1,1,796.155,1092" transform="translate(-749.5 -1053.5)"/>
  <path id="Kształt_3" data-name="Kształt 3" class="cls-1" d="M781.193,1081.63a7.994,7.994,0,0,1-2.411-.38l-2.387,2.38H773.6v2.8h-2.794v2.79h-2.794v2.8h-3.352l-1.677-1.68v-0.04l1.118-3.87,9.8-9.8A7.82,7.82,0,1,1,781.193,1081.63Z" transform="translate(-749.5 -1053.5)"/>
  <path id="Kształt_3_kopia" data-name="Kształt 3 kopia" class="cls-1" d="M783.012,1070a1.99,1.99,0,1,0,1.987,1.99A1.988,1.988,0,0,0,783.012,1070Z" transform="translate(-749.5 -1053.5)"/>
  <path id="Prostokąt_zaokrąglony_1541" data-name="Prostokąt zaokrąglony 1541" class="cls-1" d="M774,1092h28a1,1,0,0,1,1,1v14a1,1,0,0,1-1,1H774a1,1,0,0,1-1-1v-14A1,1,0,0,1,774,1092Z" transform="translate(-749.5 -1053.5)"/>
  <path id="SSO" class="cls-2" d="M779.133,1102.57q0.369,0.15.757,0.27a6.957,6.957,0,0,0,.786.17,5.3,5.3,0,0,0,.787.06,3.862,3.862,0,0,0,.963-0.12,2.237,2.237,0,0,0,.824-0.36,1.846,1.846,0,0,0,.572-0.67,2.123,2.123,0,0,0,.217-1,2.249,2.249,0,0,0-.146-0.85,1.725,1.725,0,0,0-.42-0.6,2.467,2.467,0,0,0-.663-0.41,7.115,7.115,0,0,0-.868-0.3c-0.241-.07-0.453-0.14-0.637-0.19a2.242,2.242,0,0,1-.47-0.18,0.9,0.9,0,0,1-.3-0.21,0.439,0.439,0,0,1-.105-0.3,0.5,0.5,0,0,1,.228-0.44,1.178,1.178,0,0,1,.649-0.15,2.239,2.239,0,0,1,.622.09,4.228,4.228,0,0,1,.577.21,4.477,4.477,0,0,1,.442.23c0.117,0.08.189,0.13,0.214,0.15l0.669-1.36c-0.148-.09-0.316-0.19-0.5-0.28a5.154,5.154,0,0,0-.6-0.25,4.524,4.524,0,0,0-.662-0.18,3.374,3.374,0,0,0-.715-0.07,3.244,3.244,0,0,0-1,.15,2.407,2.407,0,0,0-.826.45,2.108,2.108,0,0,0-.566.72,2.291,2.291,0,0,0-.208,1,1.934,1.934,0,0,0,.115.69,1.4,1.4,0,0,0,.357.53,2.281,2.281,0,0,0,.6.41,6.956,6.956,0,0,0,.849.32c0.247,0.07.473,0.14,0.679,0.2a2.726,2.726,0,0,1,.53.2,1.352,1.352,0,0,1,.349.23,0.474,0.474,0,0,1,.127.34q0,0.54-.872.54a3.128,3.128,0,0,1-.8-0.11,7.091,7.091,0,0,1-.715-0.25,5.869,5.869,0,0,1-.537-0.28,1.684,1.684,0,0,1-.269-0.2l-0.718,1.43A4.288,4.288,0,0,0,779.133,1102.57Zm6.157,0c0.246,0.1.5,0.19,0.757,0.27a6.926,6.926,0,0,0,.787.17,5.281,5.281,0,0,0,.786.06,3.862,3.862,0,0,0,.963-0.12,2.23,2.23,0,0,0,.824-0.36,1.846,1.846,0,0,0,.572-0.67,2.111,2.111,0,0,0,.217-1,2.249,2.249,0,0,0-.146-0.85,1.725,1.725,0,0,0-.42-0.6,2.477,2.477,0,0,0-.662-0.41,7.235,7.235,0,0,0-.868-0.3c-0.242-.07-0.454-0.14-0.637-0.19a2.22,2.22,0,0,1-.47-0.18,0.884,0.884,0,0,1-.3-0.21,0.439,0.439,0,0,1-.105-0.3,0.5,0.5,0,0,1,.227-0.44,1.178,1.178,0,0,1,.649-0.15,2.239,2.239,0,0,1,.622.09,4.243,4.243,0,0,1,.578.21,4.563,4.563,0,0,1,.441.23c0.117,0.08.189,0.13,0.214,0.15l0.669-1.36a5.67,5.67,0,0,0-.5-0.28,5.154,5.154,0,0,0-.6-0.25,4.524,4.524,0,0,0-.662-0.18,3.374,3.374,0,0,0-.715-0.07,3.253,3.253,0,0,0-1,.15,2.416,2.416,0,0,0-.826.45,2.108,2.108,0,0,0-.566.72,2.291,2.291,0,0,0-.207,1,1.934,1.934,0,0,0,.114.69,1.413,1.413,0,0,0,.357.53,2.281,2.281,0,0,0,.6.41,7.019,7.019,0,0,0,.849.32c0.247,0.07.473,0.14,0.679,0.2a2.7,2.7,0,0,1,.53.2,1.352,1.352,0,0,1,.349.23,0.47,0.47,0,0,1,.127.34q0,0.54-.871.54a3.135,3.135,0,0,1-.8-0.11,6.982,6.982,0,0,1-.714-0.25,5.77,5.77,0,0,1-.538-0.28,1.737,1.737,0,0,1-.269-0.2l-0.717,1.43A4.277,4.277,0,0,0,785.29,1102.57Zm5.831-1.8a3.693,3.693,0,0,0,.691,1.15,3.474,3.474,0,0,0,1.065.82,3,3,0,0,0,1.381.31,3.1,3.1,0,0,0,1.365-.3,3.48,3.48,0,0,0,1.072-.8,3.719,3.719,0,0,0,.962-2.49,3.778,3.778,0,0,0-.239-1.32,3.728,3.728,0,0,0-.686-1.16,3.522,3.522,0,0,0-1.065-.82,2.988,2.988,0,0,0-1.379-.31,3.114,3.114,0,0,0-1.367.3,3.344,3.344,0,0,0-1.08.79,3.581,3.581,0,0,0-.71,1.14,3.62,3.62,0,0,0-.256,1.35A3.742,3.742,0,0,0,791.121,1100.77Zm1.533-2.11a2.274,2.274,0,0,1,.325-0.68,1.627,1.627,0,0,1,.537-0.48,1.423,1.423,0,0,1,.752-0.19,1.569,1.569,0,0,1,.73.17,1.8,1.8,0,0,1,.54.47,2.27,2.27,0,0,1,.334.68,2.819,2.819,0,0,1,.115.8,3.007,3.007,0,0,1-.105.79,2.171,2.171,0,0,1-.32.68,1.692,1.692,0,0,1-.535.5,1.6,1.6,0,0,1-1.494.01,1.654,1.654,0,0,1-.542-0.48,2.314,2.314,0,0,1-.332-0.68,2.854,2.854,0,0,1-.114-0.8A2.891,2.891,0,0,1,792.654,1098.66Z" transform="translate(-749.5 -1053.5)"/>
</svg>
