<svg id="theme-preview--light" xmlns="http://www.w3.org/2000/svg" width="129" height="79"><defs><style>.cls-7,.cls-8{fill-rule:evenodd}.cls-7{fill:#dcdee0}.cls-8{fill:#007bfc}</style></defs><path id="Prostokąt_zaokrąglony_2" data-name="Prostokąt zaokrąglony 2" fill="#fff" d="M0 0h129v79H0z"/><path id="Prostokąt_1" data-name="Prostokąt 1" fill="#142467" d="M0 0h13v79H0z"/><path id="Kształt_7_kopia" data-name="Kształt 7 kopia" d="M468.143 574.3a.448.448 0 00-.378-.215h-2.3a.45.45 0 00-.449.452.459.459 0 00.069.241l.471.752 3.054-.482z" transform="translate(-463 -570)" fill-rule="evenodd" fill="#065fcd"/><path id="Kształt_7_kopia_2" data-name="Kształt 7 kopia 2" d="M468.614 575.047a.447.447 0 00-.38-.215h-2.294a.451.451 0 00-.448.452.438.438 0 00.068.241l.66 1.053 3.054-.481z" transform="translate(-463 -570)" fill="#51b9ff" fill-rule="evenodd"/><path id="Kształt_7" data-name="Kształt 7" d="M466.22 576.583a.439.439 0 01-.069-.241.45.45 0 01.449-.452h2.294a.448.448 0 01.38.215l2.053 3.283a.432.432 0 01.07.241.446.446 0 01-.07.241l-1.146 1.834a.448.448 0 01-.622.139.458.458 0 01-.138-.139zm5.788.982a.448.448 0 00.622.139.458.458 0 00.138-.139l.394-.63.754-1.2a.455.455 0 00.068-.241.461.461 0 00-.068-.24l-.6-.951a.448.448 0 00-.38-.215h-2.3a.449.449 0 00-.448.452.432.432 0 00.07.241z" transform="translate(-463 -570)" fill-rule="evenodd" fill="#fff"/><path id="Kształt_2_kopia" data-name="Kształt 2 kopia" d="M476 590v-1h116v1H476zm7 20v-1h102v1H483zm0 9v-1h102v1H483zm0 9v-1h102v1H483zm0 9v-1h102v1H483z" transform="translate(-463 -570)" fill="#e8ebed" fill-rule="evenodd"/><path id="Kształt_3" data-name="Kształt 3" class="cls-7" d="M483 578v-2h16v2h-16z" transform="translate(-463 -570)"/><path id="Kształt_4" data-name="Kształt 4" class="cls-8" d="M483 590v-1h10v1h-10z" transform="translate(-463 -570)"/><path id="Kształt_4_kopia" data-name="Kształt 4 kopia" class="cls-8" d="M483 587v-2h10v2h-10z" transform="translate(-463 -570)"/><path id="Kształt_4_kopia_2" data-name="Kształt 4 kopia 2" class="cls-7" d="M500 587v-2h10v2h-10z" transform="translate(-463 -570)"/><path id="Kształt_4_kopia_3" data-name="Kształt 4 kopia 3" class="cls-7" d="M517 587v-2h10v2h-10z" transform="translate(-463 -570)"/><path id="Kształt_4_kopia_4" data-name="Kształt 4 kopia 4" class="cls-7" d="M533 587v-2h10v2h-10z" transform="translate(-463 -570)"/><path id="Kształt_4_kopia_5" data-name="Kształt 4 kopia 5" class="cls-7" d="M549 587v-2h10v2h-10z" transform="translate(-463 -570)"/><path id="Kształt_4_kopia_6" data-name="Kształt 4 kopia 6" class="cls-7" d="M564 587v-2h10v2h-10z" transform="translate(-463 -570)"/><path id="Kształt_4_kopia_7" data-name="Kształt 4 kopia 7" class="cls-7" d="M483 604v-2h10v2h-10zm48 0v-2h8v2h-8zm14 0v-2h8v2h-8zm15 0v-2h8v2h-8zm12 0v-2h8v2h-8z" transform="translate(-463 -570)"/><path id="Kształt_4_kopia_8" data-name="Kształt 4 kopia 8" class="cls-7" d="M483 615v-2h30v2h-30zm0 9v-2h20v2h-20zm0 9v-2h29v2h-29zm0 9v-2h20v2h-20z" transform="translate(-463 -570)"/></svg>