<svg width="48" height="48" viewBox="0 0 48 48" fill="none" xmlns="http://www.w3.org/2000/svg">
<path d="M7.86207 17.2597L31.1379 4.12026C31.6552 3.8643 32 4.03494 32 4.46155V29.3752C31.9138 29.9725 31.6552 30.3991 31.1379 30.7403L7.86207 43.8797C7.34483 44.1357 7 43.9651 7 43.5385V18.6248C7.08621 18.1129 7.34483 17.6009 7.86207 17.2597Z" fill="url(#paint0_linear_469_276)"/>
<path opacity="0.2" d="M23.8511 12.4451L34.1489 6.11889C34.5745 5.86585 35 6.03454 35 6.45629V20.2053C34.9149 20.7957 34.6596 21.2175 34.1489 21.5549L23.8511 27.8811C23.4255 28.1342 23 27.9655 23 27.5437V13.7947C23.0851 13.2886 23.3404 12.7825 23.8511 12.4451Z" stroke="#02A1F3"/>
<path d="M27.8784 13.1581L39.1216 6.29709C39.6486 6.0398 40 5.78251 40 6.29709V21.0483C40 21.8201 39.6486 22.5062 39.1216 23.0208L27.8784 29.8818C27.3514 30.1391 27 29.9676 27 29.453V14.6161C27 14.0157 27.3514 13.5011 27.8784 13.1581Z" fill="#02A1F3"/>
<path d="M28 25L30.7692 18.9333L34.4615 19.8L36.3077 15.4667L39.0769 14.6L40 12" stroke="white"/>
<path opacity="0.4" d="M19 18.0833L11 22.7778V21.6944L19 17V18.0833ZM19 21.6944L11 26.3889V25.3056L19 20.6111V21.6944ZM19 25.3056L11 30V28.9167L19 24.2222V25.3056Z" fill="black"/>
<defs>
<linearGradient id="paint0_linear_469_276" x1="25.3478" y1="34.0242" x2="13.8326" y2="13.8719" gradientUnits="userSpaceOnUse">
<stop stop-color="#224B92"/>
<stop offset="1" stop-color="#26549F"/>
</linearGradient>
</defs>
</svg>
