<svg width="48" height="48" viewBox="0 0 48 48" fill="none" xmlns="http://www.w3.org/2000/svg">
<rect x="6" y="11" width="29" height="33" rx="2" fill="#2654A3"/>
<path d="M6.57842 13.8875C6.25776 12.8411 6.83767 11.7313 7.87979 11.397L30.5812 4.11546C31.6386 3.7763 32.7698 4.36345 33.101 5.42334L41.8841 33.5291C42.221 34.6073 41.5988 35.7503 40.5104 36.0527L17.3768 42.4787C16.3323 42.7688 15.2469 42.1741 14.9293 41.1376L6.57842 13.8875Z" fill="#15AFFF"/>
<path d="M22.3393 19.4397C22.6487 19.2628 22.8507 19.0524 22.9455 18.8084C23.042 18.5601 23.0316 18.2924 22.9143 18.0055C22.8664 17.8882 22.8032 17.7953 22.7247 17.7265C22.648 17.6534 22.5572 17.5987 22.4523 17.5624C22.3505 17.5248 22.2386 17.5021 22.1166 17.4943C21.9946 17.4866 21.8646 17.4857 21.7266 17.4917L22.3393 19.4397ZM20.0432 14.6688C19.8793 14.7611 19.7478 14.858 19.6489 14.9596C19.5488 15.0582 19.4753 15.1603 19.4284 15.2659C19.3816 15.3714 19.3585 15.4781 19.3593 15.5858C19.3632 15.6922 19.386 15.7964 19.4276 15.8982C19.4756 16.0154 19.5379 16.1106 19.6146 16.1837C19.6931 16.2524 19.7823 16.3077 19.8823 16.3497C19.9841 16.3873 20.0957 16.4137 20.2172 16.4289C20.3373 16.441 20.4655 16.4462 20.6017 16.4445L20.0432 14.6688ZM21.3775 16.3867C21.6274 16.3637 21.8789 16.3491 22.132 16.3429C22.3839 16.3336 22.6227 16.3584 22.8484 16.4173C23.0773 16.475 23.2854 16.579 23.4729 16.7292C23.6591 16.8764 23.8115 17.095 23.93 17.385C24.0474 17.6719 24.1099 17.9615 24.1177 18.2536C24.1242 18.5426 24.0746 18.8221 23.969 19.0922C23.862 19.3592 23.6996 19.6093 23.4816 19.8424C23.2624 20.0725 22.9844 20.269 22.6476 20.4318L22.8702 21.1349C22.8961 21.2071 22.8918 21.2845 22.8571 21.3671C22.8268 21.4515 22.7685 21.5114 22.6821 21.5467L22.2609 21.7189L21.9393 20.6944C21.5581 20.7926 21.1784 20.8326 20.8 20.8144C20.4217 20.7962 20.0766 20.723 19.7649 20.5948L19.9029 19.928C19.9148 19.8691 19.9398 19.8157 19.9778 19.7677C20.0176 19.7154 20.0669 19.6773 20.1255 19.6533C20.1934 19.6256 20.276 19.6206 20.3733 19.6385C20.4693 19.6532 20.58 19.6728 20.7052 19.6972C20.8292 19.7186 20.9677 19.7358 21.1206 19.7489C21.2736 19.7619 21.4428 19.7486 21.6282 19.7088L20.9537 17.57C20.7094 17.5978 20.4623 17.6143 20.2122 17.6193C19.9653 17.623 19.7277 17.5923 19.4994 17.5272C19.2729 17.4577 19.0643 17.3395 18.8737 17.1726C18.683 17.0056 18.5233 16.7648 18.3947 16.4501C18.2988 16.2156 18.2517 15.9683 18.2535 15.7084C18.254 15.4453 18.3078 15.1892 18.4148 14.9402C18.525 14.6899 18.6878 14.4541 18.9034 14.2327C19.119 14.0113 19.3934 13.8235 19.7265 13.6694L19.539 13.0654C19.5149 12.9888 19.5186 12.9099 19.5502 12.8285C19.5817 12.7472 19.6423 12.6883 19.7318 12.6517L20.1529 12.4795L20.4497 13.4169C20.7982 13.3357 21.119 13.3143 21.4121 13.353C21.7039 13.3885 21.9703 13.4543 22.2112 13.5503L22.1056 14.085C22.0908 14.1631 22.068 14.2264 22.0374 14.2749C22.0069 14.3234 21.9607 14.3603 21.899 14.3855C21.8527 14.4044 21.7915 14.4132 21.7154 14.412C21.6379 14.4076 21.5509 14.4018 21.4543 14.3944C21.3564 14.384 21.2478 14.3781 21.1283 14.3765C21.0119 14.3737 20.8878 14.3829 20.7562 14.4044L21.3775 16.3867Z" fill="#2654A3"/>
<path d="M16 27L33 21.5" stroke="#2654A3" stroke-width="1.5" stroke-linecap="round"/>
<path d="M17 30L34 24.5" stroke="#2654A3" stroke-width="1.5" stroke-linecap="round"/>
<path d="M18 33.5L35 28" stroke="#2654A3" stroke-width="1.5" stroke-linecap="round"/>
<path d="M19 36.5L36 31" stroke="#2654A3" stroke-width="1.5" stroke-linecap="round"/>
</svg>
