<svg width="48" height="48" viewBox="0 0 48 48" fill="none" xmlns="http://www.w3.org/2000/svg">
<path d="M45 31.5C45 33.9853 35.598 36 24 36C12.402 36 3 33.9853 3 31.5C3 29.0147 12.402 27 24 27C35.598 27 45 29.0147 45 31.5Z" fill="#2654A3"/>
<path fill-rule="evenodd" clip-rule="evenodd" d="M3 31.5V39.5C4.66667 40.8333 9 43.5 24 43.5C39 43.5 43.3333 40.8333 45 39.5V31.5C43.6667 33 37.6 36 24 36C10.4 36 4.33333 33 3 31.5ZM6.13043 38.0353C6.68272 38.0353 7.13043 37.5876 7.13043 37.0353C7.13043 36.483 6.68272 36.0353 6.13043 36.0353C5.57815 36.0353 5.13043 36.483 5.13043 37.0353C5.13043 37.5876 5.57815 38.0353 6.13043 38.0353Z" fill="#008CD5"/>
<path d="M45 20C45 22.4853 35.598 24.5 24 24.5C12.402 24.5 3 22.4853 3 20C3 17.5147 12.402 15.5 24 15.5C35.598 15.5 45 17.5147 45 20Z" fill="#2654A3"/>
<path fill-rule="evenodd" clip-rule="evenodd" d="M3 20V28C4.66667 29.3333 9 32 24 32C39 32 43.3333 29.3333 45 28V20C43.6667 21.5 37.6 24.5 24 24.5C10.4 24.5 4.33333 21.5 3 20ZM6 26.5089C6.55228 26.5089 7 26.0612 7 25.5089C7 24.9566 6.55228 24.5089 6 24.5089C5.44772 24.5089 5 24.9566 5 25.5089C5 26.0612 5.44772 26.5089 6 26.5089Z" fill="#02A1F3"/>
<ellipse cx="24" cy="8.5" rx="21" ry="4.5" fill="#15AFFF"/>
<path fill-rule="evenodd" clip-rule="evenodd" d="M3 8.5V16.5C4.66667 17.8333 9 20.5 24 20.5C39 20.5 43.3333 17.8333 45 16.5V8.5C43.6667 10 37.6 13 24 13C10.4 13 4.33333 10 3 8.5ZM6 15C6.55228 15 7 14.5523 7 14C7 13.4477 6.55228 13 6 13C5.44772 13 5 13.4477 5 14C5 14.5523 5.44772 15 6 15Z" fill="#02A1F3"/>
</svg>
