<svg width="48" height="48" viewBox="0 0 48 48" fill="none" xmlns="http://www.w3.org/2000/svg">
<path fill-rule="evenodd" clip-rule="evenodd" d="M5 19.0833C3.34315 19.0833 2 20.4265 2 22.0833V28C2 29.6569 3.34315 31 5 31H17.7737C19.0352 31 20.162 30.2108 20.5931 29.0252L22.7446 23.1086C23.4561 21.152 22.0071 19.0833 19.9252 19.0833H5ZM7.95835 27.75C9.45413 27.75 10.6667 26.5375 10.6667 25.0417C10.6667 23.5459 9.45413 22.3333 7.95835 22.3333C6.46258 22.3333 5.25002 23.5459 5.25002 25.0417C5.25002 26.5375 6.46258 27.75 7.95835 27.75Z" fill="#02A1F3"/>
<path fill-rule="evenodd" clip-rule="evenodd" d="M5 32.0833C3.34315 32.0833 2 33.4265 2 35.0833V41C2 42.6568 3.34315 44 5 44H18.9887C20.8604 44 22.2751 42.3049 21.9403 40.4633L20.8645 34.5467C20.6052 33.1202 19.3628 32.0833 17.9129 32.0833H5ZM7.95835 40.75C9.45413 40.75 10.6667 39.5374 10.6667 38.0417C10.6667 36.5459 9.45413 35.3333 7.95835 35.3333C6.46258 35.3333 5.25002 36.5459 5.25002 38.0417C5.25002 39.5374 6.46258 40.75 7.95835 40.75Z" fill="#2654A3"/>
<path fill-rule="evenodd" clip-rule="evenodd" d="M5 5C3.34315 5 2 6.34315 2 8V13.9167C2 15.5735 3.34315 16.9167 5 16.9167H40.1667C41.8235 16.9167 43.1667 15.5735 43.1667 13.9167V8C43.1667 6.34315 41.8235 5 40.1667 5H5ZM7.95835 13.6667C9.45413 13.6667 10.6667 12.4541 10.6667 10.9583C10.6667 9.46257 9.45413 8.25001 7.95835 8.25001C6.46258 8.25001 5.25002 9.46257 5.25002 10.9583C5.25002 12.4541 6.46258 13.6667 7.95835 13.6667Z" fill="#15AFFF"/>
<path fill-rule="evenodd" clip-rule="evenodd" d="M35.0417 40.75C39.5291 40.75 43.1667 37.1123 43.1667 32.625C43.1667 28.1377 39.5291 24.5 35.0417 24.5C30.5544 24.5 26.9167 28.1377 26.9167 32.625C26.9167 37.1123 30.5544 40.75 35.0417 40.75ZM35.0417 36.4167C37.1358 36.4167 38.8334 34.7191 38.8334 32.625C38.8334 30.5309 37.1358 28.8333 35.0417 28.8333C32.9476 28.8333 31.2501 30.5309 31.2501 32.625C31.2501 34.7191 32.9476 36.4167 35.0417 36.4167Z" fill="#2654A3"/>
<path d="M32.8751 23.4167C32.8751 22.2201 33.8451 21.25 35.0417 21.25V21.25C36.2383 21.25 37.2084 22.22 37.2084 23.4167V26.6667C37.2084 27.8633 36.2383 28.8333 35.0417 28.8333V28.8333C33.8451 28.8333 32.8751 27.8633 32.8751 26.6667V23.4167Z" fill="#2654A3"/>
<path d="M32.8751 38.5833C32.8751 37.3867 33.8451 36.4167 35.0417 36.4167V36.4167C36.2383 36.4167 37.2084 37.3867 37.2084 38.5833V41.8333C37.2084 43.0299 36.2383 44 35.0417 44V44C33.8451 44 32.8751 43.0299 32.8751 41.8333V38.5833Z" fill="#2654A3"/>
<path d="M41.8993 25.6222C42.9356 25.0239 44.2608 25.379 44.8591 26.4153V26.4153C45.4574 27.4516 45.1023 28.7767 44.066 29.375L41.2514 31C40.2151 31.5983 38.89 31.2432 38.2917 30.2069V30.2069C37.6934 29.1706 38.0485 27.8455 39.0848 27.2472L41.8993 25.6222Z" fill="#2654A3"/>
<path d="M44.1873 35.6323C45.2236 36.2306 45.5786 37.5557 44.9803 38.592V38.592C44.382 39.6283 43.0569 39.9834 42.0206 39.3851L39.206 37.7601C38.1697 37.1618 37.8147 35.8366 38.413 34.8003V34.8003C39.0113 33.764 40.3364 33.409 41.3727 34.0073L44.1873 35.6323Z" fill="#2654A3"/>
<path d="M26.0848 29.375C25.0485 28.7767 24.6934 27.4516 25.2917 26.4153V26.4153C25.89 25.379 27.2151 25.0239 28.2514 25.6222L31.066 27.2472C32.1023 27.8455 32.4574 29.1706 31.8591 30.207V30.207C31.2608 31.2433 29.9356 31.5983 28.8993 31L26.0848 29.375Z" fill="#2654A3"/>
<path d="M28.8993 33.9373C29.9356 33.339 31.2608 33.694 31.8591 34.7303V34.7303C32.4574 35.7666 32.1023 37.0918 31.066 37.6901L28.2514 39.3151C27.2151 39.9134 25.89 39.5583 25.2917 38.522V38.522C24.6934 37.4857 25.0485 36.1606 26.0848 35.5623L28.8993 33.9373Z" fill="#2654A3"/>
</svg>
