<svg width="24" height="24" viewBox="0 0 24 24" fill="none" xmlns="http://www.w3.org/2000/svg">
<path d="M4.64418 4.79999H20.5442C22.0442 4.79999 22.8002 5.50799 22.8002 6.94799V17.052C22.8002 18.48 22.0442 19.2 20.5442 19.2H4.64418C3.14418 19.2 2.38818 18.48 2.38818 17.052V6.94799C2.38818 5.50799 3.14418 4.79999 4.64418 4.79999ZM12.5882 15.12L20.6762 8.48399C20.9642 8.24399 21.1922 7.69199 20.8322 7.19999C20.4842 6.70799 19.8482 6.69599 19.4282 6.99599L12.5882 11.628L5.76018 6.99599C5.34018 6.69599 4.70418 6.70799 4.35618 7.19999C3.99618 7.69199 4.22418 8.24399 4.51218 8.48399L12.5882 15.12Z" fill="black"/>
</svg>
