<svg width="64" height="64" viewBox="0 0 64 64" fill="none" xmlns="http://www.w3.org/2000/svg">
<path d="M52.1 10C46.7 5 39.6 2 31.7 2C23.8 2 16.7 5 11.3 10H52.1ZM11.3 54C16.7 59 23.8 62 31.7 62C39.6 62 46.7 59 52.1 54H11.3ZM1.70001 32C1.70001 36.3 2.60001 40.3 4.20001 44H59.2C60.8 40.3 61.7 36.3 61.7 32C61.7 27.7 60.8 23.7 59.2 20H4.20001C2.60001 23.7 1.70001 27.7 1.70001 32" fill="#F9F9F9"/>
<path d="M11.4 54H52.1C55.1 51.2 57.6 47.8 59.2 44H4.20001C5.90001 47.8 8.40001 51.2 11.4 54M52.1 10H11.4C8.40001 12.8 5.90001 16.2 4.30001 20H59.3C57.6 16.2 55.1 12.8 52.1 10M40.7 27H34.7L31.7 22L28.7 27H22.7L25.7 32L22.7 37H28.7L31.7 42L34.7 37H40.7L37.7 32L40.7 27ZM31.7 24.9L33 27H30.5L31.7 24.9M25.4 28.5H27.9L26.7 30.6L25.4 28.5ZM25.4 35.5L26.6 33.4L27.8 35.5H25.4ZM31.7 39.1L30.5 37H33L31.7 39.1ZM33.9 35.5H29.7L27.5 32L29.6 28.5H33.8L36 32L33.9 35.5ZM38.1 35.5H35.6L36.8 33.4L38.1 35.5ZM36.9 30.5L35.7 28.4H38.2L36.9 30.5Z" fill="#428BC1"/>
</svg>
