<svg width="171" height="26" viewBox="0 0 171 26" fill="none" xmlns="http://www.w3.org/2000/svg">
<path d="M23.6519 15.463C23.6519 14.693 23.5526 14.099 23.3539 13.681C23.1772 13.241 22.857 12.9 22.3934 12.658C21.9517 12.416 21.4991 12.295 21.0354 12.295C20.3067 12.295 19.5229 12.625 18.6838 13.285L17.4584 14.341V18.829C17.4584 19.313 17.4584 19.764 17.4584 20.182C17.4584 20.6 17.4804 21.029 17.5246 21.469C17.5908 21.909 17.9 22.129 18.452 22.129C18.9378 22.129 19.2469 22.239 19.3794 22.459C19.5118 22.679 19.5781 23.031 19.5781 23.515C19.5781 24.131 19.5008 24.538 19.3462 24.736C19.2138 24.912 18.8384 25 18.2201 25H12.9208C12.3026 25 11.9162 24.912 11.7616 24.736C11.6291 24.538 11.5629 24.131 11.5629 23.515C11.5629 23.009 11.6181 22.657 11.7285 22.459C11.8389 22.239 12.159 22.129 12.689 22.129C13.3293 22.129 13.6495 21.029 13.6495 18.829V15.463C13.6495 14.715 13.5501 14.121 13.3514 13.681C13.1747 13.241 12.8546 12.9 12.3909 12.658C11.9493 12.416 11.5077 12.295 11.0661 12.295C10.3374 12.295 9.54252 12.625 8.68138 13.285L7.45592 14.341V18.829C7.45592 19.313 7.45592 19.764 7.45592 20.182C7.45592 20.6 7.478 21.029 7.52216 21.469C7.5884 21.909 7.89752 22.129 8.44954 22.129C8.95739 22.129 9.27756 22.239 9.41004 22.459C9.54252 22.657 9.60876 23.009 9.60876 23.515C9.60876 24.131 9.53148 24.538 9.37692 24.736C9.24443 24.912 8.85803 25 8.21769 25H2.91837C2.30012 25 1.91371 24.912 1.75915 24.736C1.62667 24.538 1.56042 24.131 1.56042 23.515C1.56042 23.031 1.61563 22.679 1.72603 22.459C1.85851 22.239 2.18972 22.129 2.71965 22.129C3.13918 22.129 3.40414 21.887 3.51455 21.403C3.64703 20.897 3.71327 20.039 3.71327 18.829V16.552V15.43V14.836C3.71327 14.616 3.69119 14.418 3.64703 14.242C3.64703 14.066 3.55871 13.934 3.38206 13.846L3.01773 13.681L2.3222 13.78C2.18972 13.78 2.04619 13.736 1.89163 13.648L1.62667 13.252L1.56042 12.493C1.56042 12.053 1.62667 11.723 1.75915 11.503C1.91371 11.261 2.25596 10.92 2.78589 10.48L4.97186 8.83002C5.50179 8.47802 5.9434 8.30202 6.29669 8.30202C6.49541 8.30202 6.72726 8.34602 6.99222 8.43402C7.30135 8.50002 7.45592 8.87402 7.45592 9.55602V10.744C8.36122 10.15 9.29964 9.64402 10.2712 9.22602C11.2427 8.80802 12.137 8.59902 12.9539 8.59902C13.1306 8.59902 13.2741 8.59902 13.3845 8.59902C13.517 8.59902 13.7599 8.64302 14.1132 8.73102C14.5548 8.79702 14.9522 8.95102 15.3055 9.19302C15.6809 9.39102 16.0231 9.65501 16.3323 9.98501L17.0278 10.777C18.0214 10.117 18.9709 9.58902 19.8762 9.19302C20.8036 8.77502 21.7089 8.56602 22.5921 8.56602C23.4311 8.56602 24.3033 8.79702 25.2086 9.25902C26.1139 9.72102 26.7101 10.436 26.9971 11.404C27.3063 12.35 27.4608 13.34 27.4608 14.374V14.968V18.829C27.4608 19.313 27.4608 19.764 27.4608 20.182C27.4608 20.6 27.4829 21.029 27.5271 21.469C27.5933 21.909 27.8914 22.129 28.4213 22.129C28.9071 22.129 29.2162 22.239 29.3487 22.459C29.4812 22.679 29.5474 23.031 29.5474 23.515C29.5474 24.131 29.4702 24.538 29.3156 24.736C29.1831 24.912 28.8077 25 28.1895 25H22.8902C22.2719 25 21.8855 24.912 21.7309 24.736C21.5985 24.538 21.5322 24.131 21.5322 23.515C21.5322 23.009 21.5874 22.657 21.6978 22.459C21.8082 22.239 22.1284 22.129 22.6583 22.129C23.0778 22.129 23.3428 21.887 23.4532 21.403C23.5857 20.897 23.6519 20.039 23.6519 18.829V15.463ZM44.4934 21.997C44.5597 22.063 44.7363 22.096 45.0234 22.096H45.5864C45.7851 22.118 45.9287 22.239 46.017 22.459L46.2819 23.086C46.3482 23.284 46.3592 23.471 46.3151 23.647C46.293 23.801 46.1605 23.966 45.9176 24.142C45.6968 24.318 45.3325 24.505 44.8246 24.703L43.5992 25.066L42.6718 25.198C42.186 25.198 41.8217 25.11 41.5788 24.934L40.9826 24.307L40.5189 23.581C39.6357 24.087 38.7746 24.483 37.9355 24.769C37.0965 25.055 36.2795 25.198 35.4846 25.198C34.778 25.198 33.8837 25 32.8018 24.604C31.7419 24.208 30.947 23.273 30.4171 21.799C30.2625 21.337 30.1853 20.864 30.1853 20.38C30.1853 19.94 30.2515 19.467 30.384 18.961C30.5385 18.455 30.8918 17.784 31.4438 16.948C32.0179 16.09 33.0668 15.375 34.5903 14.803C36.1139 14.209 37.7478 13.912 39.4922 13.912H40.3202C40.3202 13.274 40.2429 12.801 40.0884 12.493C39.9559 12.163 39.6909 11.888 39.2935 11.668C38.896 11.426 38.4323 11.305 37.9024 11.305C37.4387 11.305 37.0633 11.382 36.7763 11.536C36.4892 11.668 36.0587 12.02 35.4846 12.592C34.9105 13.164 34.4247 13.45 34.0273 13.45H33.2986L32.2387 13.417C32.04 13.373 31.8413 13.23 31.6426 12.988C31.5542 12.856 31.488 12.68 31.4438 12.46C31.3997 12.24 31.3776 11.932 31.3776 11.536C31.3776 11.206 31.3997 10.986 31.4438 10.876L31.5763 10.282C31.6426 10.018 31.8303 9.79801 32.1394 9.62201C32.4485 9.42402 32.8901 9.23702 33.4642 9.06102L35.2527 8.69802L37.5712 8.56602C38.6311 8.56602 39.5916 8.66502 40.4527 8.86302C41.3359 9.06102 42.0314 9.35801 42.5393 9.75401C43.0471 10.15 43.4336 10.689 43.6985 11.371C43.9635 11.965 44.096 12.856 44.096 14.044V14.836V20.611C44.096 21.403 44.2285 21.865 44.4934 21.997ZM35.4515 17.773C35.1202 18.059 34.8663 18.367 34.6897 18.697C34.5351 19.005 34.4358 19.357 34.3916 19.753L34.491 20.71C34.5572 21.15 34.8884 21.502 35.4846 21.766C36.0808 22.008 36.5555 22.129 36.9088 22.129C37.7699 22.129 38.631 21.832 39.4922 21.238L40.3202 20.545V16.42C39.3045 16.42 38.3661 16.541 37.5049 16.783C36.6659 17.003 35.9814 17.333 35.4515 17.773ZM53.154 8.69802C53.5514 8.63202 54.1145 8.59902 54.8432 8.59902C55.6601 8.59902 56.2232 8.62102 56.5323 8.66502C56.8414 8.68702 57.3272 8.76402 57.9896 8.89602C58.6741 9.02802 59.1709 9.27002 59.4801 9.62201C59.8113 9.95202 60.01 10.392 60.0762 10.942L60.1756 11.965L60.1425 12.526C60.1204 12.746 60.0431 12.933 59.9106 13.087C59.8665 13.153 59.7229 13.241 59.4801 13.351L59.0164 13.45L58.4864 13.483C58.0669 13.483 57.7578 13.461 57.5591 13.417L56.996 13.186L56.5654 12.856L55.9361 12.229C55.7374 11.987 55.4724 11.767 55.1412 11.569C54.81 11.371 54.3132 11.272 53.6508 11.272C52.9442 11.272 52.4364 11.47 52.1273 11.866C51.9285 12.196 51.8071 12.515 51.7629 12.823L51.9616 13.516C52.0941 13.846 52.4364 14.154 52.9884 14.44C53.143 14.506 53.4521 14.627 53.9158 14.803C54.3795 14.957 54.799 15.089 55.1744 15.199L56.1349 15.463C57.548 15.815 58.6079 16.233 59.3145 16.717C60.0873 17.179 60.551 17.773 60.7055 18.499C60.7276 18.609 60.7718 18.873 60.838 19.291C60.9263 19.709 60.9705 19.973 60.9705 20.083C60.9705 20.655 60.849 21.238 60.6062 21.832C60.3633 22.404 59.9327 22.965 59.3145 23.515C58.7183 24.043 57.8792 24.461 56.7973 24.769C55.7153 25.055 54.6775 25.198 53.6839 25.198L51.9285 25.099C51.7298 25.077 51.4648 25.033 51.1336 24.967C50.8245 24.901 50.5043 24.824 50.1731 24.736C49.5328 24.538 48.9256 24.307 48.3515 24.043C47.8657 23.779 47.5897 23.471 47.5235 23.119L47.4572 22.294V21.832C47.4572 21.238 47.4683 20.864 47.4903 20.71C47.5345 20.534 47.6449 20.369 47.8216 20.215C48.0203 20.039 48.3956 19.951 48.9477 19.951L49.3782 19.984L50.1069 20.083C50.4602 20.127 50.7583 20.248 51.0011 20.446L52.1604 21.601C52.5578 21.953 53.0878 22.239 53.7502 22.459L54.5451 22.525C55.0088 22.525 55.3952 22.481 55.7043 22.393C56.0134 22.283 56.2894 22.085 56.5323 21.799C56.7752 21.491 56.8966 21.15 56.8966 20.776C56.8966 20.644 56.8414 20.402 56.731 20.05C56.6206 19.698 56.3446 19.423 55.903 19.225L53.5846 18.466L52.6903 18.235C51.3213 17.861 50.2394 17.443 49.4445 16.981C48.6717 16.519 48.208 15.969 48.0534 15.331L47.7884 14.143L47.7553 13.516C47.7553 12.988 47.8436 12.46 48.0203 11.932C48.219 11.382 48.5944 10.876 49.1464 10.414C49.6101 9.95201 50.2062 9.56702 50.9349 9.25902C51.244 9.14902 51.5642 9.05002 51.8954 8.96202C52.2487 8.87402 52.6682 8.78602 53.154 8.69802ZM68.0695 9.35802L69.5268 8.69802L69.9574 8.59902C70.134 8.59902 70.2665 8.57702 70.3548 8.53302C70.5977 8.53302 70.7523 8.56602 70.8185 8.63202C70.9068 8.69802 71.0062 8.84102 71.1166 9.06102C71.1387 9.10502 71.1607 9.20402 71.1828 9.35802C71.227 9.49002 71.2491 9.69901 71.2491 9.98501V10.579C71.2491 10.909 71.1718 11.162 71.0172 11.338L70.0567 11.998L68.0695 13.153V18.07L68.1026 20.248C68.1026 21.018 68.2572 21.48 68.5663 21.634L69.2287 21.931L69.6593 21.964C69.9022 21.964 70.0898 21.942 70.2223 21.898L70.7854 21.733C70.9841 21.667 71.1497 21.667 71.2822 21.733C71.7459 21.975 71.9777 22.426 71.9777 23.086C71.9777 23.592 71.6796 23.988 71.0835 24.274C70.5094 24.56 69.9022 24.791 69.2618 24.967C68.9306 25.033 68.6215 25.088 68.3344 25.132C68.0695 25.176 67.8045 25.198 67.5395 25.198C66.7888 25.198 66.1485 25.033 65.6185 24.703C65.1107 24.351 64.7574 23.845 64.5587 23.185C64.4924 22.833 64.4372 22.47 64.3931 22.096C64.3489 21.722 64.3268 21.304 64.3268 20.842V20.05V14.176L63.5982 14.473L62.9358 14.605C62.715 14.605 62.5273 14.539 62.3727 14.407C62.2402 14.275 62.174 13.835 62.174 13.087V12.724C62.174 12.152 62.2402 11.789 62.3727 11.635C62.5052 11.481 62.9247 11.217 63.6313 10.843L64.3268 10.513V7.01502C64.3268 6.33302 64.3379 5.91502 64.3599 5.76102C64.4041 5.60702 64.7353 5.36502 65.3536 5.03502C65.9939 4.68302 66.4466 4.46302 66.7115 4.37502C66.9765 4.28702 67.1862 4.24302 67.3408 4.24302C67.4733 4.24302 67.5727 4.25402 67.6389 4.27602C67.7935 4.40802 67.9039 4.59502 67.9701 4.83702C68.0364 5.07902 68.0695 5.43102 68.0695 5.89302V9.35802ZM73.9597 13.516C74.4897 12.174 75.2625 11.107 76.2782 10.315C77.316 9.50101 78.2434 9.01702 79.0603 8.86302L80.5839 8.59902L81.4119 8.56602C82.4939 8.56602 83.5096 8.72002 84.459 9.02802C85.4306 9.31402 86.2917 9.84202 87.0424 10.612C87.8153 11.36 88.2017 12.174 88.2017 13.054C88.2017 13.296 88.1575 13.56 88.0692 13.846C88.0029 14.176 87.6497 14.561 87.0093 15.001C86.5015 15.353 85.6734 15.826 84.5253 16.42L78.0998 19.753C78.431 20.303 78.9168 20.809 79.5572 21.271C80.2196 21.733 81.0365 21.964 82.0081 21.964C82.3614 21.964 82.6926 21.942 83.0017 21.898C83.3108 21.854 83.6752 21.766 84.0947 21.634C84.8013 21.436 85.4306 21.172 85.9826 20.842C86.5567 20.512 86.9762 20.347 87.2412 20.347C87.4399 20.347 87.6828 20.457 87.9698 20.677C88.2789 20.875 88.4335 21.293 88.4335 21.931C88.4335 22.239 88.2237 22.591 87.8042 22.987C87.738 23.053 87.5834 23.174 87.3405 23.35C87.0976 23.504 86.7885 23.669 86.4131 23.845C85.5962 24.241 84.7019 24.582 83.7304 24.868C83.3108 24.978 82.8692 25.066 82.4055 25.132C81.9639 25.198 81.5002 25.231 81.0145 25.231C80.2858 25.231 79.6124 25.154 78.9941 25C78.3979 24.868 77.6251 24.538 76.6756 24.01C75.7262 23.46 74.9423 22.492 74.3241 21.106C73.7279 19.698 73.4298 18.345 73.4298 17.047C73.4298 15.661 73.6065 14.484 73.9597 13.516ZM80.3852 14.968C81.1359 14.66 81.6217 14.451 81.8425 14.341C82.0854 14.209 82.3393 14.066 82.6043 13.912C83.1563 13.604 83.4323 13.252 83.4323 12.856C83.4323 12.35 83.2225 11.987 82.803 11.767C82.3835 11.525 81.9198 11.404 81.4119 11.404L80.2858 11.503C80.0208 11.569 79.5792 11.767 78.961 12.097C78.3648 12.427 77.9011 12.999 77.5699 13.813C77.2829 14.605 77.1393 15.496 77.1393 16.486L80.3852 14.968ZM95.4976 10.975L96.9218 9.78701C97.2971 9.50101 97.6725 9.28102 98.0479 9.12702C98.4232 8.95102 98.8759 8.80802 99.4058 8.69802L100.664 8.59902C100.885 8.59902 101.062 8.62102 101.195 8.66502C101.349 8.66502 101.493 8.81902 101.625 9.12702C101.691 9.30302 101.736 9.44602 101.758 9.55602C101.78 9.66602 101.791 9.86401 101.791 10.15V11.734V12.394C101.791 12.79 101.769 13.076 101.725 13.252C101.702 13.428 101.614 13.571 101.46 13.681L100.797 13.846L100.267 13.879H99.5383L98.9752 13.78L98.2466 13.351C97.9595 13.153 97.6835 13.032 97.4186 12.988C97.1536 12.988 96.8666 13.098 96.5574 13.318L95.4976 14.143V18.829C95.4976 20.083 95.5638 20.952 95.6963 21.436C95.8288 21.898 96.2373 22.129 96.9218 22.129C97.4075 22.129 97.7167 22.239 97.8491 22.459C97.9816 22.679 98.0479 23.031 98.0479 23.515C98.0479 24.131 97.9706 24.538 97.816 24.736C97.6835 24.912 97.3082 25 96.6899 25H90.96C90.3418 25 89.9554 24.912 89.8008 24.736C89.6683 24.538 89.6021 24.131 89.6021 23.515C89.6021 23.031 89.6573 22.679 89.7677 22.459C89.9002 22.239 90.2314 22.129 90.7613 22.129C91.1808 22.129 91.4458 21.887 91.5562 21.403C91.6887 20.897 91.7549 20.039 91.7549 18.829V16.552V15.43V14.836C91.7549 14.616 91.7328 14.418 91.6887 14.242C91.6887 14.066 91.6004 13.934 91.4237 13.846L91.0594 13.681L90.3638 13.78C90.2314 13.78 90.0878 13.736 89.9333 13.648L89.6683 13.252L89.6021 12.493C89.6021 12.053 89.6683 11.723 89.8008 11.503C89.9554 11.261 90.2976 10.92 90.8275 10.48L93.0135 8.83002C93.5434 8.47802 93.985 8.30202 94.3383 8.30202C94.5371 8.30202 94.7689 8.34602 95.0339 8.43402C95.343 8.50002 95.4976 8.87402 95.4976 9.55602V10.975ZM109.915 14.11V18.433V19.588C109.915 19.83 109.915 20.061 109.915 20.281C109.915 20.479 109.938 20.71 109.981 20.974C110.048 21.216 110.225 21.414 110.512 21.568C110.821 21.7 111.152 21.766 111.505 21.766C111.991 21.766 112.3 21.887 112.433 22.129C112.565 22.371 112.631 22.712 112.631 23.152V23.581C112.631 24.065 112.554 24.428 112.399 24.67C112.267 24.89 111.903 25 111.307 25H104.351C103.777 25 103.391 24.89 103.192 24.67C103.059 24.428 102.993 24.065 102.993 23.581V23.152C102.993 22.668 103.048 22.316 103.159 22.096C103.269 21.876 103.6 21.766 104.152 21.766C104.462 21.766 104.76 21.7 105.047 21.568C105.334 21.436 105.521 21.194 105.609 20.842C105.72 20.468 105.775 19.962 105.775 19.324V18.433V7.34502V6.25602C105.775 5.72802 105.742 5.29902 105.676 4.96902C105.632 4.63902 105.466 4.41902 105.179 4.30902C104.892 4.17702 104.55 4.08902 104.152 4.04502C103.622 4.04502 103.302 3.94601 103.192 3.74801C103.104 3.55001 103.048 3.39602 103.026 3.28602C103.004 3.17602 102.993 2.96702 102.993 2.65902V2.23002C102.993 1.74602 103.059 1.38302 103.192 1.14102C103.324 0.899015 103.711 0.778015 104.351 0.778015H111.307C111.903 0.778015 112.267 0.899015 112.399 1.14102C112.554 1.38302 112.631 1.74602 112.631 2.23002V2.65902C112.631 3.14302 112.576 3.49501 112.466 3.71501C112.355 3.93501 112.035 4.04502 111.505 4.04502C111.196 4.04502 110.909 4.10002 110.644 4.21002C110.379 4.32002 110.18 4.58402 110.048 5.00202L109.915 6.55302V7.34502V10.645H120.117V7.34502V6.48702C120.117 5.78302 120.061 5.27702 119.95 4.96902C119.885 4.63902 119.708 4.40802 119.421 4.27602C119.134 4.12202 118.814 4.04502 118.461 4.04502C117.975 4.04502 117.655 3.92401 117.5 3.68201C117.434 3.52801 117.39 3.39602 117.368 3.28602C117.346 3.17602 117.334 2.96702 117.334 2.65902V2.23002C117.334 1.74602 117.401 1.38302 117.533 1.14102C117.666 0.899015 118.041 0.778015 118.659 0.778015H125.582C126.178 0.778015 126.553 0.899015 126.708 1.14102C126.862 1.38302 126.939 1.74602 126.939 2.23002V2.65902C126.939 3.14302 126.884 3.49501 126.774 3.71501C126.663 3.93501 126.343 4.04502 125.813 4.04502C125.504 4.04502 125.217 4.10002 124.952 4.21002C124.687 4.32002 124.489 4.58402 124.356 5.00202L124.224 6.55302V7.34502V18.433V19.588C124.224 19.83 124.224 20.061 124.224 20.281C124.224 20.479 124.246 20.71 124.29 20.974C124.356 21.216 124.533 21.414 124.82 21.568C125.129 21.7 125.46 21.766 125.813 21.766C126.299 21.766 126.608 21.887 126.741 22.129C126.873 22.371 126.939 22.712 126.939 23.152V23.581C126.939 24.153 126.829 24.538 126.608 24.736C126.41 24.912 126.067 25 125.582 25H118.659C118.063 25 117.688 24.89 117.533 24.67C117.401 24.428 117.334 24.065 117.334 23.581V23.152C117.334 22.668 117.39 22.316 117.5 22.096C117.61 21.876 117.931 21.766 118.461 21.766C118.77 21.766 119.057 21.711 119.322 21.601C119.609 21.469 119.807 21.227 119.918 20.875C120.05 20.501 120.117 19.984 120.117 19.324V18.433V14.11H109.915ZM134.691 8.69802L135.982 8.59902C137.042 8.59902 138.091 8.80802 139.129 9.22602C140.167 9.62202 141.05 10.238 141.779 11.074C142.529 11.91 143.092 12.856 143.468 13.912C143.843 14.968 144.031 15.991 144.031 16.981C144.031 17.685 143.998 18.213 143.931 18.565C143.865 18.895 143.799 19.17 143.733 19.39C143.689 19.588 143.589 19.907 143.435 20.347C143.236 21.117 142.728 21.931 141.911 22.789C141.116 23.625 140.123 24.241 138.93 24.637C137.76 25.011 136.711 25.198 135.784 25.198C134.834 25.198 133.962 25.077 133.167 24.835C132.726 24.681 132.306 24.505 131.909 24.307C131.533 24.087 131.092 23.779 130.584 23.383C129.678 22.657 128.983 21.722 128.497 20.578C128.276 20.028 128.1 19.445 127.967 18.829C127.835 18.191 127.769 17.542 127.769 16.882L127.868 15.133C127.934 14.407 128.298 13.483 128.961 12.361C129.623 11.217 130.573 10.326 131.809 9.68801C133.046 9.02801 134.006 8.69802 134.691 8.69802ZM133.432 12.064C132.704 12.592 132.24 13.208 132.041 13.912C131.864 14.594 131.776 15.441 131.776 16.453C131.776 17.355 132.008 18.356 132.472 19.456C132.957 20.556 133.576 21.337 134.326 21.799C135.099 22.261 135.773 22.492 136.347 22.492L137.042 22.459L138.003 22.063C138.467 21.821 138.864 21.414 139.195 20.842C139.526 20.248 139.747 19.665 139.858 19.093L139.957 17.971C139.957 16.959 139.78 15.925 139.427 14.869C139.096 13.813 138.643 13.065 138.069 12.625C137.583 12.207 137.109 11.888 136.645 11.668C136.446 11.58 136.247 11.514 136.049 11.47C135.872 11.426 135.662 11.404 135.419 11.404C135.132 11.404 134.845 11.448 134.558 11.536L133.929 11.734C133.774 11.778 133.609 11.888 133.432 12.064ZM150.769 8.69802C151.167 8.63202 151.73 8.59902 152.459 8.59902C153.276 8.59902 153.839 8.62102 154.148 8.66502C154.457 8.68702 154.943 8.76402 155.605 8.89602C156.289 9.02802 156.786 9.27002 157.095 9.62201C157.427 9.95202 157.625 10.392 157.692 10.942L157.791 11.965L157.758 12.526C157.736 12.746 157.658 12.933 157.526 13.087C157.482 13.153 157.338 13.241 157.095 13.351L156.632 13.45L156.102 13.483C155.682 13.483 155.373 13.461 155.174 13.417L154.611 13.186L154.181 12.856L153.552 12.229C153.353 11.987 153.088 11.767 152.757 11.569C152.425 11.371 151.929 11.272 151.266 11.272C150.56 11.272 150.052 11.47 149.743 11.866C149.544 12.196 149.422 12.515 149.378 12.823L149.577 13.516C149.71 13.846 150.052 14.154 150.604 14.44C150.758 14.506 151.067 14.627 151.531 14.803C151.995 14.957 152.414 15.089 152.79 15.199L153.75 15.463C155.163 15.815 156.223 16.233 156.93 16.717C157.703 17.179 158.166 17.773 158.321 18.499C158.343 18.609 158.387 18.873 158.453 19.291C158.542 19.709 158.586 19.973 158.586 20.083C158.586 20.655 158.464 21.238 158.222 21.832C157.979 22.404 157.548 22.965 156.93 23.515C156.334 24.043 155.495 24.461 154.413 24.769C153.331 25.055 152.293 25.198 151.299 25.198L149.544 25.099C149.345 25.077 149.08 25.033 148.749 24.967C148.44 24.901 148.12 24.824 147.789 24.736C147.148 24.538 146.541 24.307 145.967 24.043C145.481 23.779 145.205 23.471 145.139 23.119L145.073 22.294V21.832C145.073 21.238 145.084 20.864 145.106 20.71C145.15 20.534 145.26 20.369 145.437 20.215C145.636 20.039 146.011 19.951 146.563 19.951L146.994 19.984L147.722 20.083C148.076 20.127 148.374 20.248 148.617 20.446L149.776 21.601C150.173 21.953 150.703 22.239 151.366 22.459L152.16 22.525C152.624 22.525 153.011 22.481 153.32 22.393C153.629 22.283 153.905 22.085 154.148 21.799C154.391 21.491 154.512 21.15 154.512 20.776C154.512 20.644 154.457 20.402 154.346 20.05C154.236 19.698 153.96 19.423 153.518 19.225L151.2 18.466L150.306 18.235C148.937 17.861 147.855 17.443 147.06 16.981C146.287 16.519 145.823 15.969 145.669 15.331L145.404 14.143L145.371 13.516C145.371 12.988 145.459 12.46 145.636 11.932C145.834 11.382 146.21 10.876 146.762 10.414C147.225 9.95201 147.822 9.56702 148.55 9.25902C148.859 9.14902 149.18 9.05002 149.511 8.96202C149.864 8.87402 150.284 8.78602 150.769 8.69802ZM165.685 9.35802L167.142 8.69802L167.573 8.59902C167.749 8.59902 167.882 8.57702 167.97 8.53302C168.213 8.53302 168.368 8.56602 168.434 8.63202C168.522 8.69802 168.621 8.84102 168.732 9.06102C168.754 9.10502 168.776 9.20402 168.798 9.35802C168.842 9.49002 168.864 9.69901 168.864 9.98501V10.579C168.864 10.909 168.787 11.162 168.632 11.338L167.672 11.998L165.685 13.153V18.07L165.718 20.248C165.718 21.018 165.872 21.48 166.182 21.634L166.844 21.931L167.275 21.964C167.517 21.964 167.705 21.942 167.838 21.898L168.401 21.733C168.599 21.667 168.765 21.667 168.897 21.733C169.361 21.975 169.593 22.426 169.593 23.086C169.593 23.592 169.295 23.988 168.699 24.274C168.125 24.56 167.517 24.791 166.877 24.967C166.546 25.033 166.237 25.088 165.95 25.132C165.685 25.176 165.42 25.198 165.155 25.198C164.404 25.198 163.764 25.033 163.234 24.703C162.726 24.351 162.373 23.845 162.174 23.185C162.108 22.833 162.053 22.47 162.008 22.096C161.964 21.722 161.942 21.304 161.942 20.842V20.05V14.176L161.213 14.473L160.551 14.605C160.33 14.605 160.143 14.539 159.988 14.407C159.855 14.275 159.789 13.835 159.789 13.087V12.724C159.789 12.152 159.855 11.789 159.988 11.635C160.12 11.481 160.54 11.217 161.247 10.843L161.942 10.513V7.01502C161.942 6.33302 161.953 5.91502 161.975 5.76102C162.019 5.60702 162.351 5.36502 162.969 5.03502C163.609 4.68302 164.062 4.46302 164.327 4.37502C164.592 4.28702 164.802 4.24302 164.956 4.24302C165.089 4.24302 165.188 4.25402 165.254 4.27602C165.409 4.40802 165.519 4.59502 165.585 4.83702C165.652 5.07902 165.685 5.43102 165.685 5.89302V9.35802Z" fill="#ffffff"/>
</svg>
