<svg width="24" height="24" viewBox="0 0 24 24" fill="none" xmlns="http://www.w3.org/2000/svg">
<path d="M19.33 6.69401L19.75 5.31701C19.7884 5.1914 19.8512 5.07459 19.9347 4.97324C20.0183 4.87189 20.121 4.78799 20.237 4.72633C20.3529 4.66468 20.4799 4.62647 20.6107 4.61389C20.7414 4.6013 20.8734 4.6146 20.999 4.65301C21.1246 4.69142 21.2414 4.7542 21.3427 4.83775C21.4441 4.92131 21.528 5.02401 21.5897 5.13999C21.6513 5.25597 21.6895 5.38296 21.7021 5.51371C21.7147 5.64446 21.7014 5.7764 21.663 5.90201L20.493 9.72701C20.4154 9.9805 20.2404 10.1928 20.0064 10.3173C19.7724 10.4418 19.4985 10.4683 19.245 10.391L15.42 9.22101C15.2917 9.18492 15.172 9.12356 15.0678 9.04055C14.9636 8.95754 14.8771 8.85455 14.8132 8.73762C14.7494 8.6207 14.7096 8.49219 14.6961 8.35966C14.6826 8.22713 14.6957 8.09323 14.7347 7.96584C14.7737 7.83846 14.8377 7.72014 14.923 7.61784C15.0084 7.51554 15.1133 7.43133 15.2316 7.37014C15.35 7.30895 15.4793 7.27202 15.6121 7.26153C15.7449 7.25103 15.8785 7.26717 16.005 7.30901L17.677 7.82001C16.9378 6.69891 15.9068 5.80069 14.695 5.22209C13.4832 4.6435 12.1366 4.40645 10.8 4.53649C9.4635 4.66652 8.18777 5.1587 7.11023 5.96003C6.03268 6.76135 5.19416 7.84145 4.68498 9.08401L4.42498 9.71701C4.37769 9.84197 4.30584 9.95618 4.21368 10.0529C4.12152 10.1496 4.01091 10.2269 3.88839 10.2802C3.76586 10.3334 3.63391 10.3616 3.50031 10.363C3.36672 10.3644 3.23419 10.3391 3.11056 10.2884C2.98694 10.2378 2.87471 10.1629 2.78052 10.0681C2.68633 9.97336 2.61208 9.86069 2.56215 9.73677C2.51222 9.61285 2.48764 9.48018 2.48984 9.34659C2.49204 9.21301 2.52099 9.08122 2.57498 8.95901L2.83498 8.32601C3.48121 6.74929 4.5447 5.37836 5.91125 4.36043C7.27781 3.3425 8.89583 2.71601 10.5916 2.54824C12.2873 2.38047 13.9967 2.67774 15.5362 3.40814C17.0758 4.13855 18.3873 5.27449 19.33 6.69401V6.69401ZM3.80798 17.307L3.48098 18.618C3.45172 18.748 3.39677 18.8709 3.31935 18.9794C3.24193 19.0878 3.14362 19.1798 3.03017 19.2497C2.91673 19.3196 2.79045 19.3662 2.65876 19.3866C2.52706 19.4071 2.39261 19.401 2.26331 19.3687C2.134 19.3365 2.01245 19.2787 1.90579 19.1988C1.79913 19.1189 1.70952 19.0185 1.64222 18.9034C1.57493 18.7884 1.53131 18.6611 1.51392 18.5289C1.49653 18.3968 1.50573 18.2625 1.54098 18.134L2.50798 14.254C2.5406 14.1219 2.59984 13.9978 2.68208 13.8894C2.76431 13.781 2.86781 13.6905 2.98623 13.6235C3.10465 13.5565 3.23551 13.5143 3.37079 13.4996C3.50607 13.4849 3.64292 13.498 3.77298 13.538L7.60098 14.492C7.85837 14.5562 8.07972 14.72 8.21634 14.9474C8.35296 15.1748 8.39366 15.4471 8.32948 15.7045C8.26529 15.9619 8.10149 16.1833 7.8741 16.3199C7.64671 16.4565 7.37437 16.4972 7.11698 16.433L5.33098 15.988C6.09449 17.1569 7.17373 18.0853 8.44352 18.6656C9.7133 19.246 11.1216 19.4544 12.5051 19.2668C13.8885 19.0793 15.1904 18.5033 16.2598 17.6058C17.3292 16.7083 18.1223 15.526 18.547 14.196C18.6276 13.9433 18.8053 13.7329 19.0411 13.6112C19.1578 13.5509 19.2852 13.5142 19.4161 13.5032C19.547 13.4922 19.6788 13.5071 19.804 13.547C19.9291 13.5869 20.0452 13.6511 20.1455 13.7359C20.2459 13.8207 20.3285 13.9244 20.3888 14.0411C20.4491 14.1578 20.4858 14.2853 20.4968 14.4162C20.5078 14.5471 20.4929 14.6789 20.453 14.804C20.0367 16.11 19.3392 17.3088 18.4097 18.3163C17.4802 19.3237 16.3413 20.1152 15.073 20.635C13.0968 21.4446 10.9036 21.5561 8.85553 20.951C6.80745 20.3459 5.02694 19.0605 3.80798 17.307V17.307Z" fill="black"/>
</svg>
