<svg width="24" height="24" viewBox="0 0 24 24" fill="none" xmlns="http://www.w3.org/2000/svg">
<g clip-path="url(#clip0_1017_10)">
<path d="M9.6027 14.5195L9.63402 14.6015C9.64377 14.6279 9.65848 14.6633 9.67109 14.7006L9.71661 14.8316C9.73442 14.8817 9.74891 14.9324 9.76789 14.991C9.78598 15.0488 9.80741 15.1136 9.82419 15.1772L9.88278 15.3868C9.90209 15.4598 9.91831 15.5331 9.93786 15.613C10.0216 15.9579 10.0811 16.3082 10.1159 16.6614C10.1359 16.8494 10.1443 17.0367 10.1485 17.2294C10.1488 17.4182 10.1443 17.6118 10.1266 17.801C10.1092 17.9891 10.0807 18.176 10.041 18.3607C10.0013 18.5419 9.94878 18.7202 9.88395 18.894C9.75472 19.2388 9.57345 19.5573 9.338 19.8389C9.22152 19.981 9.08539 20.1077 8.95053 20.2389C8.81375 20.3682 8.67378 20.4975 8.52767 20.6228C8.23222 20.8792 7.92353 21.1199 7.60287 21.344C7.27906 21.5717 6.93847 21.7827 6.58911 21.9762C6.4141 22.0722 6.23675 22.1639 6.05722 22.2511C5.87827 22.3371 5.69724 22.4186 5.51431 22.4957C5.14944 22.6479 4.7818 22.78 4.4173 22.8895C4.06541 22.9958 3.70849 23.0846 3.34784 23.1558C2.65812 23.2933 2.02508 23.3497 1.55455 23.3617L1.38631 23.3647L1.23523 23.3645L0.990641 23.358L0.833844 23.3488L0.778438 23.344L0.773656 23.2886L0.764469 23.1318L0.757953 22.8872L0.757812 22.7362L0.760719 22.5679C0.772766 22.0974 0.829109 21.4643 0.966687 20.7746C1.03783 20.414 1.12669 20.0571 1.23294 19.7052C1.34239 19.3407 1.47453 18.973 1.62673 18.6082C1.70383 18.4252 1.78537 18.2442 1.87128 18.0652C1.95847 17.8864 2.04988 17.7085 2.1462 17.5334C2.33975 17.184 2.55069 16.8434 2.77841 16.5196C3.00245 16.1989 3.24318 15.8902 3.49958 15.5948C3.62492 15.4487 3.7542 15.3087 3.88353 15.1719C4.01473 15.0371 4.14144 14.901 4.28352 14.7845C4.56514 14.549 4.88366 14.3677 5.22838 14.2385C5.40227 14.1737 5.5805 14.1212 5.76177 14.0814C5.94646 14.0418 6.13335 14.0132 6.32145 13.9959C6.51059 13.9782 6.70428 13.9737 6.89305 13.974C7.0857 13.9781 7.27302 13.9866 7.46103 14.0066C7.81423 14.0414 8.16456 14.1008 8.50944 14.1846C8.58927 14.2041 8.66258 14.2204 8.73566 14.2397L8.94519 14.2983C9.00884 14.3151 9.07363 14.3365 9.13142 14.3546C9.19011 14.3735 9.24069 14.388 9.2908 14.4059L9.42181 14.4514C9.45908 14.464 9.49452 14.4787 9.52095 14.4885C9.57481 14.5088 9.6027 14.5195 9.6027 14.5195V14.5195Z" fill="#FFB636"/>
<path d="M3.60282 8.51962L0.203725 11.9187C-0.0312124 12.1537 0.135194 12.5554 0.467444 12.5554H3.32424C3.42315 12.5554 3.51802 12.5947 3.58796 12.6646L5.4429 14.5195L8.4556 8.4104H3.86654C3.81756 8.41039 3.76906 8.42003 3.72381 8.43877C3.67856 8.45751 3.63745 8.48498 3.60282 8.51962ZM10.1326 18.4027L11.9875 20.2577C12.0574 20.3276 12.0967 20.4225 12.0967 20.5214V23.3782C12.0967 23.7104 12.4984 23.8769 12.7334 23.6419L16.1325 20.2428C16.2024 20.1729 16.2417 20.078 16.2417 19.9791V15.39L10.1326 18.4027V18.4027Z" fill="#FF473E"/>
<path d="M23.7024 0.83788L23.706 0.867739C23.7082 0.88738 23.7125 0.917661 23.7156 0.95502C23.7217 1.02969 23.7357 1.14538 23.7423 1.28469C23.7635 1.57129 23.7777 1.97474 23.7677 2.46013C23.758 2.9458 23.7238 3.51313 23.6496 4.12897C23.6331 4.28488 23.6094 4.43924 23.5865 4.59965C23.5653 4.76169 23.535 4.91999 23.5074 5.08588C23.4507 5.41621 23.3799 5.75235 23.2982 6.09524C23.128 6.80687 22.9118 7.50673 22.6511 8.19041C22.3821 8.89452 22.0594 9.59783 21.681 10.281C21.3021 10.9637 20.8711 11.6295 20.3894 12.2624C19.9083 12.896 19.3772 13.4971 18.8073 14.0595C18.2375 14.622 17.6296 15.1464 16.991 15.6224C16.8313 15.7413 16.6707 15.8583 16.5064 15.9702C16.3439 16.0839 16.178 16.1926 16.0125 16.3003C15.6801 16.5142 15.3406 16.7143 14.9976 16.9021C14.3224 17.2715 13.6229 17.5945 12.9038 17.8689C12.2205 18.1291 11.5216 18.346 10.8111 18.5185C10.469 18.601 10.1346 18.6735 9.80483 18.7308L9.56207 18.7745C9.48163 18.7883 9.40002 18.7996 9.3208 18.8121L9.08572 18.8479L8.85257 18.8776C8.24005 18.9551 7.67647 18.993 7.19436 19.0063C6.71277 19.0201 6.31161 19.0082 6.0283 18.9902C5.89039 18.985 5.77546 18.9718 5.70168 18.9666C5.66469 18.9639 5.63464 18.9598 5.61524 18.9578L5.58566 18.9546C5.3615 18.9296 5.19149 18.7516 5.16758 18.5365L5.1643 18.5069C5.16233 18.4875 5.15825 18.4575 5.15554 18.4205C5.15033 18.3467 5.13711 18.2318 5.13191 18.0939C5.114 17.8106 5.1021 17.4095 5.11583 16.9278C5.1291 16.4457 5.16707 15.8821 5.24455 15.2696L5.27422 15.0365L5.31008 14.8014C5.3225 14.7222 5.33389 14.6406 5.34763 14.5601L5.39136 14.3173C5.4486 13.9876 5.52116 13.6532 5.60361 13.3111C5.77607 12.6006 5.99303 11.9017 6.25321 11.2184C6.52766 10.4993 6.85069 9.79977 7.22005 9.12454C7.40788 8.7816 7.60799 8.44208 7.82178 8.10965C7.9295 7.94422 8.03825 7.77824 8.15197 7.61577C8.26386 7.45147 8.38082 7.29088 8.49974 7.13118C8.97571 6.49255 9.50014 5.88468 10.0626 5.31486C10.625 4.745 11.2262 4.21386 11.8597 3.73279C12.4926 3.2511 13.1585 2.82004 13.8411 2.44115C14.5243 2.06282 15.2277 1.74004 15.9317 1.47107C16.6154 1.21033 17.3153 0.994178 18.0269 0.823958C18.3698 0.742255 18.7059 0.671473 19.0363 0.614755C19.2021 0.587145 19.3604 0.556911 19.5225 0.535677C19.6829 0.512802 19.8372 0.489083 19.9932 0.472536C20.609 0.39838 21.1763 0.364161 21.662 0.354458C22.1474 0.344473 22.5508 0.358676 22.8374 0.379911C22.9768 0.38652 23.0924 0.400489 23.1671 0.406583C23.2045 0.409676 23.2348 0.413942 23.2544 0.416192L23.2843 0.419802C23.5078 0.446755 23.6766 0.623895 23.7024 0.83788V0.83788Z" fill="#ADBBBC"/>
<path d="M11.3956 12.7264L11.423 12.8004C11.4382 12.8463 11.4587 12.9125 11.4729 12.9862C11.5064 13.1387 11.5176 13.3245 11.4569 13.486C11.427 13.5672 11.3717 13.6349 11.3196 13.7167L11.1465 13.9771L10.7309 14.6011C10.5659 14.8456 10.3995 15.0892 10.2316 15.3317C10.0446 15.6016 9.85527 15.87 9.66374 16.1367L9.35859 16.5566L9.04152 16.9825C8.82642 17.2673 8.60629 17.5551 8.38246 17.8391C8.16081 18.1221 7.93636 18.4029 7.70915 18.6814C7.48504 18.9573 7.26529 19.2295 7.04901 19.4893L6.73171 19.8733C6.62662 19.9974 6.53104 20.1259 6.42004 20.2332C6.30974 20.3411 6.18248 20.4261 6.03623 20.4852C5.89124 20.5455 5.73252 20.5852 5.57906 20.6222C5.28976 20.6908 4.99731 20.7452 4.70273 20.7854C4.5666 20.804 4.43643 20.8187 4.31348 20.8297C4.19118 20.8413 4.07287 20.8459 3.96918 20.8534C3.8647 20.86 3.76495 20.8594 3.6816 20.8624C3.59699 20.8641 3.52082 20.8613 3.4612 20.8612C3.40031 20.8599 3.35165 20.8568 3.31982 20.8557L3.26985 20.8524L3.26648 20.8024C3.2654 20.7706 3.26235 20.7219 3.26099 20.661C3.2609 20.6014 3.25813 20.5253 3.25982 20.4406C3.26273 20.3572 3.26221 20.2575 3.26882 20.153C3.27623 20.0493 3.28092 19.931 3.29254 19.8087C3.30351 19.6858 3.31813 19.5556 3.33679 19.4195C3.37697 19.1249 3.43144 18.8324 3.50001 18.5432C3.53704 18.3897 3.5767 18.231 3.63702 18.086C3.69609 17.9397 3.78112 17.8125 3.88902 17.7022C3.99627 17.5912 4.12485 17.4956 4.24893 17.3905L4.63293 17.0732C4.89276 16.857 5.16496 16.6372 5.44082 16.4131C5.71621 16.1886 5.99831 15.9628 6.28317 15.7398C6.56718 15.5159 6.85495 15.2958 7.13976 15.0807L7.56562 14.7637L7.98557 14.4585C8.25232 14.267 8.52064 14.0777 8.79051 13.8906C9.04832 13.712 9.2939 13.5449 9.52115 13.3913L10.1452 12.9758L10.4055 12.8027C10.4873 12.7506 10.555 12.6953 10.6363 12.6654C10.7978 12.6047 10.9835 12.6158 11.1361 12.6494C11.2098 12.6635 11.2759 12.6841 11.3219 12.6993L11.3956 12.7264V12.7264Z" fill="#FF473E"/>
<path d="M16.9739 9.6872C16.9739 11.0896 15.8371 12.2264 14.4347 12.2264C13.0324 12.2264 11.8955 11.0896 11.8955 9.6872C11.8955 8.28484 13.0324 7.14798 14.4347 7.14798C15.8371 7.14798 16.9739 8.28484 16.9739 9.6872V9.6872ZM18.2503 4.25528C17.3576 4.25528 16.634 4.97894 16.634 5.87162C16.634 6.76431 17.3576 7.48797 18.2503 7.48797C19.143 7.48797 19.8666 6.76431 19.8666 5.87162C19.8666 4.97894 19.143 4.25528 18.2503 4.25528Z" fill="#2B3B47"/>
</g>
<defs>
<clipPath id="clip0_1017_10">
<rect width="24" height="24" fill="white"/>
</clipPath>
</defs>
</svg>
