<svg width="48" height="48" viewBox="0 0 48 48" fill="none" xmlns="http://www.w3.org/2000/svg">
<rect x="13.2709" y="4.4325" width="43.008" height="12.5269" rx="2" transform="rotate(45.0548 13.2709 4.4325)" fill="#2654A3"/>
<path d="M34 5.50001L9.00003 30.5C7.83336 33.6667 5.90001 40.8 5.50001 42C5.10001 43.2 6 42.5 6.5 42.5L18 39L42.5 14.5C43.3 13.7 42.8333 12.3333 42.5 12C40.6667 10.1667 37.3 6.30001 36.5 5.50001C35.7 4.70001 34.5 5.16668 34 5.50001Z" fill="#15AFFF"/>
<path d="M5.77026 11.7046C4.76034 12.7116 4.97616 14.1295 5.7798 14.9287C5.81199 14.9596 9.03967 18.0304 13.5789 22.5512C13.6341 22.6068 13.6999 22.6509 13.7723 22.6811C13.8448 22.7112 13.9225 22.7267 14.001 22.7267C14.0795 22.7267 14.1572 22.7112 14.2297 22.6811C14.3021 22.6509 14.3679 22.6068 14.4231 22.5512C14.5349 22.4399 14.5976 22.2889 14.5976 22.1315C14.5976 21.974 14.5349 21.823 14.4231 21.7117C13.7387 21.0301 13.0877 20.3852 12.47 19.7749L14.3647 17.8879C14.4733 17.7759 14.5334 17.626 14.532 17.4703C14.5306 17.3146 14.4679 17.1657 14.3574 17.0556C14.2469 16.9455 14.0973 16.8831 13.941 16.8817C13.7847 16.8804 13.6341 16.9402 13.5217 17.0484L11.6223 18.9401C10.7051 18.0381 9.78503 17.1392 8.86201 16.2432L13.1723 11.9504C13.2809 11.8384 13.341 11.6885 13.3397 11.5328C13.3383 11.3771 13.2756 11.2282 13.1651 11.1181C13.0545 11.008 12.905 10.9456 12.7487 10.9442C12.5924 10.9429 12.4418 11.0027 12.3293 11.1109L8.0059 15.4167C7.12834 14.5701 6.62278 14.0891 6.61444 14.0808C6.36285 13.8302 6.03257 13.1249 6.61444 12.5454L12.5762 6.60787C12.8063 6.37512 13.4191 5.91318 14.0916 6.57937C14.1214 6.61262 17.1321 10.0184 21.7274 14.595C21.8398 14.7031 21.9904 14.763 22.1467 14.7616C22.3031 14.7603 22.4526 14.6978 22.5631 14.5878C22.6737 14.4777 22.7364 14.3288 22.7377 14.1731C22.7391 14.0174 22.679 13.8674 22.5704 13.7554C18.0037 9.20849 15.0157 5.82887 14.9608 5.76712C13.8496 4.66274 12.5094 4.99405 11.7332 5.76712L5.77026 11.7046ZM31.0575 33.6734C30.9457 33.5621 30.7941 33.4995 30.636 33.4995C30.4779 33.4995 30.3263 33.5621 30.2145 33.6734L28.3175 35.5615C27.7113 34.9496 27.1032 34.3397 26.4932 33.7316C26.3808 33.6234 26.2302 33.5636 26.0738 33.5649C25.9175 33.5663 25.768 33.6287 25.6575 33.7388C25.5469 33.8489 25.4842 33.9978 25.4829 34.1535C25.4815 34.3092 25.5416 34.4591 25.6502 34.5711C28.2048 37.109 30.7202 39.6858 33.1954 42.3006C33.6043 42.7091 34.1647 42.9335 34.7728 42.9335C35.3988 42.9335 36.0319 42.6901 36.4242 42.2982L42.3836 36.293C43.1335 35.5461 43.1765 34.279 42.4766 33.5796L34.4807 25.6174C34.3683 25.5092 34.2177 25.4494 34.0614 25.4507C33.905 25.4521 33.7555 25.5145 33.645 25.6246C33.5344 25.7347 33.4717 25.8836 33.4704 26.0393C33.469 26.195 33.5291 26.3449 33.6377 26.4569L41.6336 34.4191C41.872 34.6566 41.8267 35.1696 41.5394 35.4558L35.5789 41.461C35.4417 41.5987 35.1305 41.746 34.7728 41.746C34.5677 41.746 34.2744 41.6961 34.0527 41.4741C34.0407 41.461 33.5411 40.9302 32.6743 40.0265L37.0192 35.6992C37.1278 35.5873 37.1879 35.4373 37.1865 35.2816C37.1852 35.1259 37.1225 34.977 37.0119 34.8669C36.9014 34.7568 36.7519 34.6944 36.5956 34.693C36.4393 34.6917 36.2887 34.7515 36.1762 34.8597L31.8492 39.1691C30.9555 38.244 30.0573 37.3233 29.1545 36.407L31.0575 34.5117C31.1689 34.4004 31.2314 34.2497 31.2314 34.0926C31.2314 33.9354 31.1689 33.7847 31.0575 33.6734ZM5.16932 42.7969C5.2454 42.8743 5.34127 42.9295 5.44656 42.9565C5.55185 42.9835 5.66255 42.9813 5.76668 42.9501L17.6901 39.4126C17.7859 39.3846 17.873 39.3327 17.9429 39.2617L38.3201 18.8308C38.3487 18.8023 38.363 18.7655 38.3844 18.7334L42.7437 14.3919C42.9169 14.2206 43.0545 14.0168 43.1483 13.7923C43.2422 13.5679 43.2905 13.3271 43.2905 13.0839C43.2905 12.8407 43.2422 12.5999 43.1483 12.3754C43.0545 12.151 42.9169 11.9472 42.7437 11.7759L36.5017 5.56049C35.8006 4.86224 34.5761 4.86224 33.875 5.56049L29.4168 10.0006C29.3882 10.0291 29.3727 10.0659 29.3512 10.0991L8.94309 30.4256C8.94309 30.4256 8.8265 30.5727 8.79762 30.6619L5.02981 42.1984C4.99592 42.3014 4.991 42.4116 5.01559 42.5171C5.04019 42.6226 5.09336 42.7194 5.16932 42.7969ZM29.8723 11.2593L31.1111 12.4931L12.6024 30.9766L10.5432 30.5111L29.8723 11.2593ZM13.3464 31.9159L31.9553 13.3339L34.8599 16.2266L16.0828 34.6875H13.3464V31.9159ZM37.055 18.414L17.6865 37.8344L16.9986 35.457L35.7029 17.0662L37.055 18.414ZM9.76103 31.5513L12.1541 32.0928V35.2812C12.1541 35.4387 12.2169 35.5897 12.3287 35.7011C12.4405 35.8124 12.5921 35.875 12.7502 35.875H15.8789L16.6349 38.4875L6.51428 41.4907L9.76103 31.5513ZM34.7192 6.40005C34.8457 6.27921 35.0142 6.21175 35.1896 6.21175C35.3649 6.21175 35.5334 6.27921 35.6599 6.40005L41.9019 12.6166C41.9641 12.6779 42.0135 12.7509 42.0472 12.8314C42.0809 12.9118 42.0982 12.9982 42.098 13.0853C42.0979 13.1725 42.0804 13.2588 42.0465 13.3392C42.0127 13.4196 41.9631 13.4924 41.9007 13.5536L37.8813 17.5578L30.6998 10.4055L34.7192 6.40005Z" fill="#293140"/>
</svg>
