<svg width="48" height="48" viewBox="0 0 48 48" fill="none" xmlns="http://www.w3.org/2000/svg">
<path d="M30.9824 13.5C30.9824 17.366 27.8484 20.5 23.9824 20.5C20.1164 20.5 16.9824 17.366 16.9824 13.5C16.9824 9.63401 20.1164 6.5 23.9824 6.5C27.8484 6.5 30.9824 9.63401 30.9824 13.5Z" fill="#2654A3"/>
<path d="M14 29C14 25.134 17.134 22 21 22H27C30.866 22 34 25.134 34 29V40C34 41.1046 33.1046 42 32 42H16C14.8954 42 14 41.1046 14 40V29Z" fill="#2654A3"/>
<path d="M42.2482 18.449C42.2482 21.4866 39.7858 23.949 36.7482 23.949C33.7107 23.949 31.2482 21.4866 31.2482 18.449C31.2482 15.4115 33.7107 12.949 36.7482 12.949C39.7858 12.949 42.2482 15.4115 42.2482 18.449Z" fill="#02A1F3"/>
<path d="M35.5 25.5C35.1061 25.303 36.4968 25.2612 38.3272 25.283C42.0635 25.3273 45 28.4381 45 32.1746V38C45 40.2091 43.2096 42 41.0005 42C38.4712 42 35.7252 42 36 42C36.5 42 36.5 26 35.5 25.5Z" fill="#02A1F3"/>
<path d="M16.7215 18.4959C16.7215 21.5335 14.2591 23.9959 11.2215 23.9959C8.18393 23.9959 5.7215 21.5335 5.7215 18.4959C5.7215 15.4584 8.18393 12.9959 11.2215 12.9959C14.2591 12.9959 16.7215 15.4584 16.7215 18.4959Z" fill="#15AFFF"/>
<path d="M12.5 25.5C12.8693 25.3004 11.4843 25.2576 9.66559 25.2791C5.93218 25.3234 2.99999 28.4338 2.99999 32.1675V38C2.99999 40.2091 4.79036 42 6.9995 42C9.52126 42 12.2582 42 12 42C11.5296 42 11.5593 26.0083 12.5 25.5Z" fill="#15AFFF"/>
</svg>
